<?xml version="1.0" encoding="utf-8"?>
<!-- Generator: Adobe Illustrator 17.1.0, SVG Export Plug-In . SVG Version: 6.00 Build 0)  -->
<!DOCTYPE svg PUBLIC "-//W3C//DTD SVG 1.1//EN" "http://www.w3.org/Graphics/SVG/1.1/DTD/svg11.dtd">
<svg version="1.1" id="Layer_1" xmlns="http://www.w3.org/2000/svg" xmlns:xlink="http://www.w3.org/1999/xlink" x="0px" y="0px"
	 viewBox="0 0 54 41" enable-background="new 0 0 54 41" xml:space="preserve">
<g id="cast_x5F_icon_x5F_off_x5F_dark">
	<path fill="#CCCCCC" d="M0,19.089v4.012C9.435,24.042,16.957,31.566,17.898,41h4.012C20.948,29.343,11.658,20.052,0,19.089z"/>
	<path fill="#CCCCCC" d="M0,27.138v4.042C5.015,32.027,8.973,35.985,9.819,41h4.042C12.957,33.767,7.234,28.042,0,27.138z"/>
	<path fill="#CCCCCC" d="M0,35.262V41h5.738C5.014,38.192,2.808,35.986,0,35.262z"/>
	<path fill="#CCCCCC" d="M4,0v15.651c0.676,0.147,1.344,0.319,2,0.515V2h46v33H24.834c0.195,0.656,0.367,1.324,0.515,2H54V0H4z"/>
</g>
</svg>
